<?xml version="1.0" encoding="UTF-8"?>
<svg xmlns="http://www.w3.org/2000/svg" xmlns:xlink="http://www.w3.org/1999/xlink" width="2835" height="2835" viewBox="0 0 2835 2835">
<path fill-rule="evenodd" fill="rgb(100%, 100%, 100%)" fill-opacity="1" d="M 0 0.351562 L 2834.648438 0.351562 L 2834.648438 2835 L 0 2835 L 0 0.351562 "/>
<path fill-rule="nonzero" fill="rgb(91.014099%, 0%, 2.348328%)" fill-opacity="1" d="M 1043.800781 1822.789062 C 1098.539062 1875.597656 1161.960938 1914.273438 1233.941406 1938.589844 C 1296.289062 1959.691406 1366.460938 1970.40625 1442.519531 1970.40625 C 1445.300781 1970.40625 1448.191406 1970.40625 1451.078125 1970.40625 C 1523.289062 1969.652344 1597.628906 1952.300781 1666.191406 1920.273438 C 1737.429688 1886.953125 1800.308594 1838.535156 1847.871094 1780.261719 C 1890.828125 1727.671875 1921.039062 1668 1937.738281 1602.859375 C 1955.738281 1532.378906 1957.460938 1456.75 1942.671875 1378.230469 C 1931 1316.628906 1903.570312 1259.640625 1861.050781 1208.859375 C 1842.730469 1187.011719 1822.589844 1177.160156 1801.269531 1179.511719 C 1779.851562 1181.871094 1762.171875 1196.109375 1748.988281 1221.609375 C 1743.101562 1232.96875 1738.28125 1240.25 1733.03125 1246.039062 C 1720.5 1259.75 1711.929688 1258.789062 1704.21875 1256.53125 C 1697.898438 1254.601562 1690.609375 1252.46875 1688.039062 1232.75 C 1684.511719 1206.398438 1689.648438 1178.871094 1695.21875 1149.839844 C 1696.5 1143.519531 1697.679688 1137.089844 1698.859375 1130.449219 C 1719.75 1012.511719 1711.929688 918.128906 1674.328125 833.511719 C 1657.621094 795.910156 1636.300781 762.480469 1611.128906 734.308594 C 1586.699219 706.988281 1558.738281 684.289062 1527.03125 665.960938 C 1470.691406 633.398438 1402.769531 614.21875 1319.539062 607.261719 C 1318.25 607.160156 1317.078125 607.050781 1315.890625 606.828125 C 1307.960938 606.078125 1297.25 605.011719 1285.578125 607.371094 C 1267.691406 610.898438 1253.441406 621.191406 1244.339844 637.148438 C 1234.269531 654.710938 1233.089844 674.429688 1240.910156 692.640625 C 1246.160156 704.640625 1254.191406 713.421875 1260.089844 719.851562 C 1260.828125 720.699219 1261.589844 721.449219 1262.328125 722.308594 C 1331.53125 799.761719 1305.289062 902.820312 1245.410156 960.441406 C 1202.988281 1001.261719 1170.53125 1041.859375 1146.210938 1084.601562 C 1146.640625 1078.488281 1147.179688 1072.28125 1147.820312 1066.070312 C 1148.03125 1064.570312 1148.140625 1063.070312 1148.359375 1061.570312 C 1149.421875 1052.679688 1150.710938 1041.75 1148.460938 1029.539062 C 1144.929688 1011.121094 1133.890625 996.011719 1117.179688 986.898438 C 1098.539062 976.730469 1078.289062 976.300781 1060.089844 985.621094 C 1048.089844 991.828125 1039.519531 1000.941406 1033.410156 1007.691406 C 1032.230469 1008.859375 1031.160156 1010.050781 1030.308594 1011.011719 C 991.742188 1050.75 960.035156 1093.710938 935.820312 1138.699219 C 910.109375 1186.269531 892.332031 1236.71875 882.585938 1289.960938 C 863.617188 1393.441406 866.835938 1490.070312 892.007812 1577.261719 C 918.359375 1668.640625 969.453125 1751.339844 1043.800781 1822.789062 Z M 958.53125 1304.101562 C 973.527344 1222.261719 1009.738281 1149.839844 1068.96875 1083.210938 C 1065.539062 1135.808594 1069.300781 1183.46875 1080.121094 1228.25 C 1080.328125 1229.011719 1080.550781 1230.078125 1080.761719 1231.359375 C 1082.898438 1241.960938 1087.191406 1264.25 1112.039062 1280.53125 C 1114.71875 1282.359375 1117.71875 1283.851562 1120.820312 1284.921875 C 1124.039062 1285.988281 1127.25 1286.640625 1130.570312 1286.851562 C 1133.789062 1287.070312 1137.109375 1286.851562 1140.429688 1286.210938 C 1143.640625 1285.671875 1146.75 1284.601562 1149.75 1283.210938 C 1152.75 1281.820312 1155.53125 1279.988281 1158 1277.851562 C 1160.570312 1275.710938 1162.820312 1273.238281 1164.738281 1270.570312 C 1166.671875 1267.890625 1168.171875 1264.890625 1169.351562 1261.789062 C 1170.53125 1258.679688 1171.28125 1255.46875 1171.601562 1252.140625 C 1180.601562 1166.328125 1220.988281 1091.460938 1298.859375 1016.46875 C 1321.140625 995.050781 1339.140625 970.519531 1352.960938 942.878906 C 1367.101562 915.03125 1375.878906 885.570312 1379.308594 854.5 C 1382.851562 822.039062 1379.960938 790.121094 1370.640625 759.699219 C 1362.5 733.128906 1349.859375 708.710938 1333.03125 686.53125 C 1470.46875 702.390625 1556.808594 759.378906 1603.730469 865.109375 C 1634.800781 934.839844 1640.800781 1014.871094 1622.800781 1116.851562 C 1621.730469 1122.851562 1620.558594 1128.839844 1619.378906 1135.269531 C 1612.949219 1169.121094 1606.199219 1204.148438 1611.449219 1243.039062 C 1614.238281 1264.140625 1621.191406 1282.140625 1631.910156 1296.5 C 1644.230469 1313.101562 1661.261719 1324.671875 1682.570312 1330.878906 C 1692.320312 1333.769531 1702.179688 1335.269531 1712.359375 1335.269531 C 1740.960938 1335.269531 1767.738281 1322.738281 1790.019531 1298.519531 C 1797.949219 1289.640625 1804.808594 1280.101562 1810.699219 1269.820312 C 1839.621094 1307.308594 1858.480469 1348.660156 1866.71875 1392.589844 C 1897.359375 1555.191406 1840.910156 1666.390625 1788.199219 1731.089844 C 1707.859375 1829.429688 1578.351562 1891.457031 1450.339844 1892.738281 C 1302.511719 1894.347656 1187.019531 1853.101562 1097.25 1766.761719 C 969.355469 1643.679688 924.042969 1492.421875 958.53125 1304.101562 Z M 2296.609375 1272.609375 C 2291.570312 1271.738281 2286.539062 1271.960938 2281.609375 1273.140625 C 2276.578125 1274.429688 2271.96875 1276.460938 2267.898438 1279.460938 C 2263.71875 1282.570312 2260.289062 1286.210938 2257.621094 1290.601562 C 2254.941406 1295 2253.230469 1299.710938 2252.359375 1304.839844 L 2218.191406 1520.269531 C 2216.589844 1530.128906 2213.261719 1539.339844 2208.019531 1547.910156 C 2202.769531 1556.480469 2196.128906 1563.660156 2188.089844 1569.550781 C 2179.949219 1575.441406 2171.058594 1579.511719 2161.308594 1581.859375 C 2151.671875 1584.230469 2141.929688 1584.550781 2132.070312 1583.050781 C 2122.210938 1581.441406 2113 1578.011719 2104.429688 1572.761719 C 2095.96875 1567.511719 2088.789062 1560.878906 2082.898438 1552.730469 C 2077.121094 1544.589844 2072.929688 1535.699219 2070.691406 1525.949219 C 2068.328125 1516.199219 2068.011719 1506.339844 2069.511719 1496.488281 L 2103.789062 1280.960938 C 2104.640625 1275.929688 2104.429688 1270.78125 2103.25 1265.75 C 2102.179688 1260.710938 2100.039062 1256.101562 2097.039062 1251.929688 C 2094.039062 1247.648438 2090.289062 1244.21875 2085.898438 1241.539062 C 2081.609375 1238.75 2076.789062 1237.039062 2071.761719 1236.179688 C 2066.609375 1235.328125 2061.578125 1235.539062 2056.550781 1236.828125 C 2051.511719 1238 2047.011719 1240.140625 2042.828125 1243.25 C 2038.648438 1246.25 2035.21875 1250 2032.550781 1254.5 C 2029.871094 1258.890625 2028.160156 1263.710938 2027.410156 1268.738281 L 1993.238281 1484.28125 C 1990.78125 1499.710938 1990.671875 1515.238281 1993.019531 1530.769531 C 1995.269531 1546.410156 1999.878906 1561.191406 2006.730469 1575.339844 C 2013.589844 1589.46875 2022.371094 1602.21875 2033.089844 1613.679688 C 2043.800781 1625.148438 2056.011719 1634.679688 2069.609375 1642.289062 C 1987.878906 2011.214844 1697.25 2147.480469 1451.300781 2151.761719 C 1184.558594 2156.371094 859.125 2004.6875 758.960938 1661.679688 C 775.566406 1652.78125 790.242188 1641.539062 803.101562 1627.710938 C 815.949219 1614.011719 826.234375 1598.578125 834.054688 1581.441406 C 841.765625 1564.300781 846.695312 1546.410156 848.621094 1527.671875 C 850.550781 1508.921875 849.476562 1490.28125 845.304688 1471.960938 C 835.445312 1428.359375 805.238281 1370.730469 768.28125 1325.199219 C 747.285156 1299.28125 725.644531 1279.25 704.109375 1265.640625 C 674.765625 1247.109375 646.160156 1240.898438 619.058594 1247.109375 C 591.953125 1253.210938 568.820312 1271.320312 550.285156 1300.671875 C 536.683594 1322.308594 525.863281 1349.730469 517.933594 1382.191406 C 504.109375 1439.289062 501.546875 1504.308594 511.402344 1547.910156 C 515.6875 1566.871094 522.96875 1584.660156 533.253906 1601.148438 C 543.539062 1617.648438 556.289062 1632 571.390625 1644.21875 C 586.496094 1656.320312 603.203125 1665.640625 621.523438 1672.171875 C 639.839844 1678.601562 658.589844 1681.921875 677.976562 1681.921875 C 680.121094 1681.921875 682.257812 1681.921875 684.40625 1681.820312 C 707.757812 1762.269531 743.429688 1836.714844 790.671875 1903.667969 C 840.59375 1974.261719 902.507812 2035.53125 975.027344 2085.773438 C 1109.039062 2178.652344 1273.148438 2229.429688 1438.660156 2229.429688 C 1443.261719 2229.429688 1447.980469 2229.429688 1452.691406 2229.320312 C 1531.210938 2227.929688 1607.589844 2215.179688 1679.679688 2191.511719 C 1754.878906 2166.757812 1823.878906 2130.558594 1884.828125 2083.84375 C 1949.320312 2034.46875 2004.050781 1973.832031 2047.550781 1903.777344 C 2091.890625 1832.210938 2124.46875 1750.800781 2144.601562 1661.570312 C 2217.871094 1661.25 2282.570312 1607.578125 2294.46875 1532.488281 L 2328.75 1317.058594 C 2329.488281 1311.921875 2329.28125 1306.878906 2328.101562 1301.851562 C 2326.921875 1296.921875 2324.78125 1292.308594 2321.78125 1288.140625 C 2318.78125 1283.960938 2315.140625 1280.53125 2310.75 1277.851562 C 2306.359375 1275.171875 2301.640625 1273.460938 2296.609375 1272.609375 Z M 586.707031 1530.769531 C 580.605469 1503.988281 580.921875 1450.539062 593.027344 1400.511719 C 604.921875 1351.128906 623.769531 1325.519531 636.09375 1322.738281 C 637.164062 1322.519531 638.238281 1322.410156 639.300781 1322.410156 C 652.90625 1322.410156 678.941406 1337.949219 708.402344 1374.261719 C 740.855469 1414.21875 763.890625 1462.210938 769.992188 1489.101562 C 772.675781 1501.308594 772.992188 1513.53125 770.957031 1525.839844 C 768.816406 1538.160156 764.425781 1549.628906 757.78125 1560.230469 C 751.140625 1570.828125 742.785156 1579.730469 732.609375 1587.011719 C 722.433594 1594.191406 711.292969 1599.21875 699.082031 1601.898438 C 686.976562 1604.691406 674.765625 1605.011719 662.445312 1602.859375 C 650.230469 1600.828125 638.765625 1596.441406 628.269531 1589.679688 C 617.667969 1583.050781 608.882812 1574.578125 601.601562 1564.410156 C 594.417969 1554.230469 589.488281 1542.980469 586.707031 1530.769531 Z M 2103.679688 1514.808594 L 2139.890625 1286.851562 C 2140.738281 1281.820312 2142.558594 1277.101562 2145.238281 1272.710938 C 2147.921875 1268.421875 2151.351562 1264.789062 2155.53125 1261.789062 C 2159.601562 1258.789062 2164.199219 1256.75 2169.128906 1255.570312 C 2174.058594 1254.390625 2179.101562 1254.179688 2184.128906 1254.929688 C 2189.058594 1255.789062 2193.769531 1257.5 2198.160156 1260.179688 C 2202.449219 1262.859375 2206.199219 1266.28125 2209.199219 1270.351562 C 2212.199219 1274.539062 2214.339844 1279.03125 2215.519531 1283.960938 C 2216.691406 1288.988281 2217.019531 1293.921875 2216.261719 1299.058594 L 2180.058594 1527.019531 C 2179.199219 1532.058594 2177.378906 1536.769531 2174.710938 1541.050781 C 2172.019531 1545.449219 2168.601562 1549.089844 2164.421875 1552.089844 C 2160.351562 1554.980469 2155.738281 1557.121094 2150.820312 1558.300781 C 2145.890625 1559.480469 2140.851562 1559.691406 2135.808594 1558.839844 C 2130.789062 1558.089844 2126.179688 1556.269531 2121.78125 1553.578125 C 2117.5 1551.019531 2113.75 1547.589844 2110.75 1543.410156 C 2107.75 1539.339844 2105.609375 1534.839844 2104.429688 1529.800781 C 2103.25 1524.878906 2102.929688 1519.851562 2103.679688 1514.808594 "/>
</svg>
